<svg width="14" height="8" viewBox="0 0 14 8" fill="none" xmlns="http://www.w3.org/2000/svg">
<path fill-rule="evenodd" clip-rule="evenodd" d="M9.947 0.21967C10.2399 0.512563 10.2399 0.987437 9.947 1.28033L4.6541 6.57322C3.97069 7.25664 2.86265 7.25664 2.17923 6.57322L0.21967 4.61366C-0.0732233 4.32077 -0.0732233 3.8459 0.21967 3.553C0.512563 3.26011 0.987437 3.26011 1.28033 3.553L3.23989 5.51256C3.33752 5.61019 3.49581 5.61019 3.59344 5.51256L8.88634 0.21967C9.17923 -0.0732233 9.6541 -0.0732233 9.947 0.21967ZM13.2803 0.21967C13.5732 0.512563 13.5732 0.987437 13.2803 1.28033L7.28033 7.28033C6.98744 7.57322 6.51256 7.57322 6.21967 7.28033C5.92678 6.98744 5.92678 6.51256 6.21967 6.21967L12.2197 0.21967C12.5126 -0.0732233 12.9874 -0.0732233 13.2803 0.21967Z" fill="white"/>
</svg>
